<?xml version="1.0" encoding="UTF-8" standalone="no"?>
<svg
   width="135.97"
   height="106.92"
   color-interpolation="linearRGB"
   version="1.1"
   id="svg39"
   sodipodi:docname="karton-haiku.svg"
   inkscape:version="1.3.2 (091e20ef0f, 2023-11-25)"
   xmlns:inkscape="http://www.inkscape.org/namespaces/inkscape"
   xmlns:sodipodi="http://sodipodi.sourceforge.net/DTD/sodipodi-0.dtd"
   xmlns="http://www.w3.org/2000/svg"
   xmlns:svg="http://www.w3.org/2000/svg">
  <sodipodi:namedview
     id="namedview1"
     pagecolor="#ffffff"
     bordercolor="#000000"
     borderopacity="0.25"
     inkscape:showpageshadow="2"
     inkscape:pageopacity="0.0"
     inkscape:pagecheckerboard="0"
     inkscape:deskcolor="#d1d1d1"
     inkscape:zoom="2.3256198"
     inkscape:cx="302.5"
     inkscape:cy="89.438522"
     inkscape:window-width="1876"
     inkscape:window-height="1056"
     inkscape:window-x="0"
     inkscape:window-y="0"
     inkscape:window-maximized="1"
     inkscape:current-layer="svg39" />
  <defs
     id="defs43" />
  <g
     id="g37"
     transform="translate(-3.98,-33.02)">
    <path
       style="fill:#000000;fill-opacity:1"
       d="M 44.02,33.02 V 139.94 H 57.97 V 33.02 Z"
       id="path2" />
    <path
       style="fill:#000000;fill-opacity:1"
       d="m 107.01,33.02 c 0,35.53 0,71.38 0,106.92 h 13.95 V 33.02 Z"
       id="path4" />
    <radialGradient
       id="gradient0"
       gradientUnits="userSpaceOnUse"
       cx="0"
       cy="0"
       r="200"
       gradientTransform="matrix(0.2836,-0.2527,-0.3788,-0.4255,512.8768,120.2052)">
      <stop
         offset="0"
         stop-color="#ffa600"
         id="stop14" />
      <stop
         offset="1"
         stop-color="#ffee9c"
         id="stop16" />
    </radialGradient>
    <radialGradient
       id="gradient1"
       gradientUnits="userSpaceOnUse"
       cx="0"
       cy="0"
       r="200"
       gradientTransform="matrix(0.6661,-0.0701,0.0251,0.2389,207.932,85.249)">
      <stop
         offset="0"
         stop-color="#ff7200"
         id="stop21" />
      <stop
         offset="1"
         stop-color="#ffaa00"
         id="stop23" />
    </radialGradient>
    <radialGradient
       id="gradient2"
       gradientUnits="userSpaceOnUse"
       cx="0"
       cy="0"
       r="200"
       gradientTransform="matrix(0.8307,-0.3373,0.1335,0.2809,69.4186,116.0485)">
      <stop
         offset="0"
         stop-color="#33a02c"
         id="stop28" />
      <stop
         offset="1"
         stop-color="#a9ff00"
         id="stop30" />
    </radialGradient>
    <path
       style="fill:url(#gradient2)"
       d="m 39.7,101.52 c 13.95,13.37 28.42,17.25 42.67,14.8 -2.34,-1.72 -3.45,-3.83 -4.38,-5.56 15.92,9.08 23.88,-2.22 28.79,-5.86 -1.69,-1.37 -3.75,-0.3 -7.15,-4.43 4.35,0.59 7.18,0.37 11.19,0.36 2.51,-2.33 6.31,-4.16 8.66,-6.94 2.88,-3.41 6.54,-8.08 9.54,-11.97 -1.93,-1.18 -2.31,-2.22 -3.04,-3.69 1.76,0.44 3.54,0.66 5.31,0.63 2.37,-4.5 6.13,-7.33 8.66,-8.52 -10.54,-3.66 -24.04,-3.16 -33.81,-1.16 -3.26,2.79 -3.16,6.41 -4.22,12.38 -2.05,-2.67 -2.97,-6.02 -1.76,-10.65 -6.88,2.16 -13.58,5.08 -20.04,8.11 -2.5,1.17 -8.65,5.56 -12.25,6.96 -1.7,2.54 -3.12,4.98 -4.29,7.32 C 63.51,91.15 63.17,89.03 63.34,86.82 51.51,88.66 45.05,91.83 37.67,98.38 21.88,98.43 4.17,91.66 4.31,89.22 l -0.33,5.72 c 0,0 19.72,7.48 35.75,6.58 h -0.02 z"
       id="path33" />
  </g>
</svg>
